#!OML:ASF X:\für Bonn\!DataBase\2005_08_12_Daniel\c3d\Daniel.ASF
:FULLY-SPECIFIED
:DEGREES
76
root 32.4321 19.5477 1.64803 -9.78958 79.3731 -369.67
lowerback 9.11517 1.23974 4.53762
upperback -1.77668 1.98717 -3.24488
thorax -6.73596 0.731756 -6.30101
lowerneck 3.41347 3.28906 -7.43178
upperneck 16.4751 5.01711 0.656622
head 4.70779 2.28355 1.68687
rclavicle 7.48549e-015 -2.94201e-014
rhumerus -1.58473 29.9287 -85.9488
rradius 99.3517
rwrist -9.5387
rhand -29.9252 26.0376
rfingers 7.12502
rthumb -3.24521 -3.91747
lclavicle 7.48549e-015 -2.94201e-014
lhumerus -5.12063 -26.0831 66.5358
lradius 119.566
lwrist 34.2226
lhand -11.5592 -18.4632
lfingers 7.12502
lthumb 14.4818 11.0114
rfemur -1.47884 8.62796 25.151
rtibia 36.1269
rfoot 18.3317 -7.08207
rtoes -11.228
lfemur -10.5067 2.18943 -17.2349
ltibia 52.4052
lfoot 17.3525 -3.12381
ltoes -7.48719
77
root 32.5849 19.6772 1.65186 -9.98167 79.2591 -369.246
lowerback 9.17545 1.27408 4.68541
upperback -1.72971 2.04861 -3.32044
thorax -6.70482 0.757151 -6.47709
lowerneck 4.00305 3.35946 -7.59922
upperneck 16.5367 5.04013 0.977999
head 4.60532 2.30844 1.81079
rclavicle -1.95927e-014 -3.97569e-015
rhumerus 0.206875 29.4722 -84.3412
rradius 101.275
rwrist -9.30876
rhand -30.3815 26.9182
rfingers 7.12502
rthumb -3.68586 -3.02965
lclavicle -1.95927e-014 -3.97569e-015
lhumerus -2.26369 -25.8436 64.4756
lradius 120.057
lwrist 34.197
lhand -13.5499 -19.8572
lfingers 7.12502
lthumb 12.5631 9.74508
rfemur -1.1891 8.46458 25.3251
rtibia 36.4422
rfoot 18.591 -6.29846
rtoes -11.8441
lfemur -10.5143 1.94376 -17.3736
ltibia 53.0074
lfoot 17.7786 -3.71232
ltoes -7.69427
78
root 32.7362 19.7967 1.65486 -10.1992 79.1701 -368.86
lowerback 9.26906 1.28162 4.78717
upperback -1.68433 2.07188 -3.36307
thorax -6.70208 0.765069 -6.58776
lowerneck 4.59197 3.44172 -7.65891
upperneck 16.6354 5.0942 1.20578
head 4.52055 2.34999 1.88491
rclavicle 4.54223e-014 -2.38542e-015
rhumerus 1.87523 29.0157 -82.7962
rradius 102.881
rwrist -8.90108
rhand -30.9751 27.8176
rfingers 7.12502
rthumb -4.25913 -2.11953
lclavicle 4.54223e-014 -2.38542e-015
lhumerus 0.335777 -25.4727 62.8068
lradius 120.271
lwrist 33.8031
lhand -15.4859 -21.0689
lfingers 7.12502
lthumb 10.696 8.63883
rfemur -0.941672 8.23735 25.4722
rtibia 36.7035
rfoot 18.6538 -5.40263
rtoes -12.215
lfemur -10.5839 1.93072 -17.4394
ltibia 53.5364
lfoot 17.6942 -4.6335
ltoes -9.03736
79
root 32.8838 19.9033 1.65735 -10.4981 79.0967 -368.555
lowerback 9.38857 1.29951 4.89165
upperback -1.60818 2.10988 -3.41964
thorax -6.6783 0.781665 -6.71736
lowerneck 5.11417 3.48273 -7.52138
upperneck 16.8343 5.11319 1.38187
head 4.49278 2.38142 1.911
rclavicle -2.42517e-014 -4.77083e-015
rhumerus 3.46826 28.4027 -81.3762
rradius 104.199
rwrist -8.46139
rhand -31.6001 28.5154
rfingers 7.12502
rthumb -4.8626 -1.40879
lclavicle -2.42517e-014 -4.77083e-015
lhumerus 2.76677 -25.0887 61.4359
lradius 120.284
lwrist 33.1487
lhand -17.281 -22.106
lfingers 7.12502
lthumb 8.96423 7.68353
rfemur -0.720136 7.89699 25.6006
rtibia 36.9095
rfoot 18.4251 -4.16244
rtoes -12.6607
lfemur -10.676 1.89733 -17.4847
ltibia 53.9269
lfoot 17.1845 -5.51359
ltoes -11.1416
80
root 33.0292 20.0015 1.65941 -10.7508 79.0524 -368.218
lowerback 9.5463 1.30805 4.94084
upperback -1.53135 2.13225 -3.44221
thorax -6.68058 0.792353 -6.77819
lowerneck 5.54528 3.51241 -7.28856
upperneck 17.1812 5.1524 1.45464
head 4.54207 2.42263 1.89257
rclavicle -9.56651e-015 -7.15625e-015
rhumerus 4.88683 27.7787 -80.0281
rradius 105.359
rwrist -8.2328
rhand -32.073 28.929
rfingers 7.12502
rthumb -5.31924 -0.98423
lclavicle -9.56651e-015 -7.15625e-015
lhumerus 4.9423 -24.7207 60.4144
lradius 120.136
lwrist 32.3824
lhand -18.8122 -22.7929
lfingers 7.12502
lthumb 7.48638 7.05467
rfemur -0.565127 7.42208 25.656
rtibia 37.0552
rfoot 17.9712 -3.04089
rtoes -13.4212
lfemur -10.7728 1.85936 -17.5447
ltibia 54.1464
lfoot 16.5118 -6.22474
ltoes -13.3282
81
root 33.1735 20.0884 1.6609 -10.9557 78.997 -367.839
lowerback 9.71913 1.3015 4.95716
upperback -1.44185 2.1316 -3.45921
thorax -6.68255 0.79351 -6.81117
lowerneck 5.53705 3.53251 -6.91776
upperneck 18.3894 5.23895 1.53821
head 4.43493 2.49428 1.7514
rclavicle -3.94339e-014 2.38542e-015
rhumerus 6.20604 27.1989 -78.8108
rradius 106.339
rwrist -8.30269
rhand -32.4619 29.0937
rfingers 7.12502
rthumb -5.69469 -0.80982
lclavicle -3.94339e-014 2.38542e-015
lhumerus 6.92854 -24.3317 59.5873
lradius 119.831
lwrist 31.715
lhand -19.8741 -23.1768
lfingers 7.12502
lthumb 6.46139 6.70468
rfemur -0.459643 6.82504 25.6494
rtibia 37.1389
rfoot 17.6943 -2.11212
rtoes -13.5319
lfemur -10.809 1.81939 -17.616
ltibia 54.1681
lfoot 15.6856 -6.67039
ltoes -15.9681
